<mxfile host="app.diagrams.net" modified="2024-03-25T05:25:23.559Z" agent="Mozilla/5.0 (Windows NT 10.0; Win64; x64; rv:124.0) Gecko/20100101 Firefox/124.0" etag="rVnueStsJkEYBNdHN3Gh" version="24.0.7" type="github">
  <diagram name="Page-1" id="u_DC-2LbKOSmIZjF_Yv-">
    <mxGraphModel dx="1000" dy="531" grid="1" gridSize="10" guides="1" tooltips="1" connect="1" arrows="1" fold="1" page="1" pageScale="1" pageWidth="850" pageHeight="1100" math="0" shadow="0">
      <root>
        <mxCell id="0" />
        <mxCell id="1" parent="0" />
        <mxCell id="OrfXbIgiLES11DGZUOGK-7" value="Signin" style="swimlane;whiteSpace=wrap;html=1;" vertex="1" parent="1">
          <mxGeometry x="110" y="40" width="580" height="290" as="geometry" />
        </mxCell>
        <mxCell id="OrfXbIgiLES11DGZUOGK-8" value="" style="group" vertex="1" connectable="0" parent="OrfXbIgiLES11DGZUOGK-7">
          <mxGeometry x="30" y="70" width="520" height="190" as="geometry" />
        </mxCell>
        <mxCell id="FxtF5fFsgEnlyhEd9Eye-1" value="Unhandled" style="rounded=0;whiteSpace=wrap;html=1;movable=1;resizable=1;rotatable=1;deletable=1;editable=1;locked=0;connectable=1;" parent="OrfXbIgiLES11DGZUOGK-8" vertex="1">
          <mxGeometry x="360" y="140" width="160" height="50" as="geometry" />
        </mxCell>
        <mxCell id="FxtF5fFsgEnlyhEd9Eye-3" style="edgeStyle=orthogonalEdgeStyle;rounded=0;orthogonalLoop=1;jettySize=auto;html=1;entryX=0;entryY=0.5;entryDx=0;entryDy=0;movable=1;resizable=1;rotatable=1;deletable=1;editable=1;locked=0;connectable=1;" parent="OrfXbIgiLES11DGZUOGK-8" source="FxtF5fFsgEnlyhEd9Eye-2" target="OrfXbIgiLES11DGZUOGK-1" edge="1">
          <mxGeometry relative="1" as="geometry" />
        </mxCell>
        <mxCell id="FxtF5fFsgEnlyhEd9Eye-2" value="Padi app token" style="rounded=0;whiteSpace=wrap;html=1;movable=1;resizable=1;rotatable=1;deletable=1;editable=1;locked=0;connectable=1;" parent="OrfXbIgiLES11DGZUOGK-8" vertex="1">
          <mxGeometry y="70" width="120" height="60" as="geometry" />
        </mxCell>
        <mxCell id="OrfXbIgiLES11DGZUOGK-5" style="edgeStyle=orthogonalEdgeStyle;rounded=0;orthogonalLoop=1;jettySize=auto;html=1;entryX=0;entryY=0.5;entryDx=0;entryDy=0;movable=1;resizable=1;rotatable=1;deletable=1;editable=1;locked=0;connectable=1;fillColor=#f8cecc;strokeColor=#b85450;" edge="1" parent="OrfXbIgiLES11DGZUOGK-8" source="OrfXbIgiLES11DGZUOGK-1" target="FxtF5fFsgEnlyhEd9Eye-1">
          <mxGeometry relative="1" as="geometry">
            <mxPoint x="240" y="220" as="targetPoint" />
            <Array as="points">
              <mxPoint x="240" y="165" />
            </Array>
          </mxGeometry>
        </mxCell>
        <mxCell id="OrfXbIgiLES11DGZUOGK-6" value="Invalid" style="edgeLabel;html=1;align=center;verticalAlign=middle;resizable=1;points=[];movable=1;rotatable=1;deletable=1;editable=1;locked=0;connectable=1;" vertex="1" connectable="0" parent="OrfXbIgiLES11DGZUOGK-5">
          <mxGeometry x="0.1724" y="3" relative="1" as="geometry">
            <mxPoint as="offset" />
          </mxGeometry>
        </mxCell>
        <mxCell id="OrfXbIgiLES11DGZUOGK-1" value="&lt;div&gt;Validate&lt;/div&gt;&lt;div&gt;token&lt;/div&gt;" style="rhombus;whiteSpace=wrap;html=1;movable=1;resizable=1;rotatable=1;deletable=1;editable=1;locked=0;connectable=1;fillColor=#dae8fc;strokeColor=#6c8ebf;" vertex="1" parent="OrfXbIgiLES11DGZUOGK-8">
          <mxGeometry x="200" y="60" width="80" height="80" as="geometry" />
        </mxCell>
        <mxCell id="OrfXbIgiLES11DGZUOGK-2" value="localStorage" style="shape=cylinder3;whiteSpace=wrap;html=1;boundedLbl=1;backgroundOutline=1;size=12;movable=1;resizable=1;rotatable=1;deletable=1;editable=1;locked=0;connectable=1;" vertex="1" parent="OrfXbIgiLES11DGZUOGK-8">
          <mxGeometry x="340" width="80" height="60" as="geometry" />
        </mxCell>
        <mxCell id="OrfXbIgiLES11DGZUOGK-14" value="" style="endArrow=classic;html=1;rounded=0;exitX=1;exitY=0.5;exitDx=0;exitDy=0;entryX=0.5;entryY=1;entryDx=0;entryDy=0;entryPerimeter=0;fillColor=#d5e8d4;strokeColor=#82b366;" edge="1" parent="OrfXbIgiLES11DGZUOGK-8" source="OrfXbIgiLES11DGZUOGK-1" target="OrfXbIgiLES11DGZUOGK-2">
          <mxGeometry relative="1" as="geometry">
            <mxPoint x="310" y="190" as="sourcePoint" />
            <mxPoint x="410" y="190" as="targetPoint" />
            <Array as="points">
              <mxPoint x="380" y="100" />
            </Array>
          </mxGeometry>
        </mxCell>
        <mxCell id="OrfXbIgiLES11DGZUOGK-15" value="Valid" style="edgeLabel;resizable=0;html=1;;align=center;verticalAlign=middle;" connectable="0" vertex="1" parent="OrfXbIgiLES11DGZUOGK-14">
          <mxGeometry relative="1" as="geometry" />
        </mxCell>
        <mxCell id="OrfXbIgiLES11DGZUOGK-17" value="Run-time auth" style="swimlane;whiteSpace=wrap;html=1;" vertex="1" parent="1">
          <mxGeometry x="110" y="360" width="580" height="190" as="geometry" />
        </mxCell>
        <mxCell id="OrfXbIgiLES11DGZUOGK-19" value="Listen auth state" style="rhombus;whiteSpace=wrap;html=1;movable=1;resizable=1;rotatable=1;deletable=1;editable=1;locked=0;connectable=1;fillColor=#dae8fc;strokeColor=#6c8ebf;" vertex="1" parent="OrfXbIgiLES11DGZUOGK-17">
          <mxGeometry x="250" y="50" width="80" height="80" as="geometry" />
        </mxCell>
        <mxCell id="OrfXbIgiLES11DGZUOGK-21" value="" style="endArrow=classic;html=1;rounded=0;exitX=0.5;exitY=1;exitDx=0;exitDy=0;fillColor=#d5e8d4;strokeColor=#82b366;entryX=0.5;entryY=1;entryDx=0;entryDy=0;" edge="1" parent="OrfXbIgiLES11DGZUOGK-17" source="OrfXbIgiLES11DGZUOGK-19" target="OrfXbIgiLES11DGZUOGK-23">
          <mxGeometry relative="1" as="geometry">
            <mxPoint x="320" y="50" as="sourcePoint" />
            <mxPoint x="100" y="50" as="targetPoint" />
            <Array as="points">
              <mxPoint x="290" y="160" />
              <mxPoint x="90" y="160" />
            </Array>
          </mxGeometry>
        </mxCell>
        <mxCell id="OrfXbIgiLES11DGZUOGK-22" value="authenticated" style="edgeLabel;resizable=0;html=1;;align=center;verticalAlign=middle;" connectable="0" vertex="1" parent="OrfXbIgiLES11DGZUOGK-21">
          <mxGeometry relative="1" as="geometry" />
        </mxCell>
        <mxCell id="OrfXbIgiLES11DGZUOGK-23" value="Access chat app" style="rounded=0;whiteSpace=wrap;html=1;movable=1;resizable=1;rotatable=1;deletable=1;editable=1;locked=0;connectable=1;" vertex="1" parent="OrfXbIgiLES11DGZUOGK-17">
          <mxGeometry x="10" y="80" width="160" height="50" as="geometry" />
        </mxCell>
        <mxCell id="OrfXbIgiLES11DGZUOGK-20" style="edgeStyle=orthogonalEdgeStyle;rounded=0;orthogonalLoop=1;jettySize=auto;html=1;entryX=1;entryY=0.5;entryDx=0;entryDy=0;" edge="1" parent="1" source="OrfXbIgiLES11DGZUOGK-2" target="OrfXbIgiLES11DGZUOGK-19">
          <mxGeometry relative="1" as="geometry">
            <Array as="points">
              <mxPoint x="760" y="140" />
              <mxPoint x="760" y="450" />
            </Array>
          </mxGeometry>
        </mxCell>
        <mxCell id="OrfXbIgiLES11DGZUOGK-24" style="edgeStyle=orthogonalEdgeStyle;rounded=0;orthogonalLoop=1;jettySize=auto;html=1;entryX=-0.05;entryY=0.467;entryDx=0;entryDy=0;movable=1;resizable=1;rotatable=1;deletable=1;editable=1;locked=0;connectable=1;fillColor=#f8cecc;strokeColor=#b85450;exitX=0.5;exitY=0;exitDx=0;exitDy=0;entryPerimeter=0;" edge="1" parent="1" source="OrfXbIgiLES11DGZUOGK-19" target="FxtF5fFsgEnlyhEd9Eye-2">
          <mxGeometry relative="1" as="geometry">
            <mxPoint x="510" y="285" as="targetPoint" />
            <mxPoint x="390" y="260" as="sourcePoint" />
            <Array as="points">
              <mxPoint x="70" y="410" />
              <mxPoint x="70" y="208" />
            </Array>
          </mxGeometry>
        </mxCell>
        <mxCell id="OrfXbIgiLES11DGZUOGK-25" value="Invalid" style="edgeLabel;html=1;align=center;verticalAlign=middle;resizable=1;points=[];movable=1;rotatable=1;deletable=1;editable=1;locked=0;connectable=1;" vertex="1" connectable="0" parent="OrfXbIgiLES11DGZUOGK-24">
          <mxGeometry x="0.1724" y="3" relative="1" as="geometry">
            <mxPoint as="offset" />
          </mxGeometry>
        </mxCell>
      </root>
    </mxGraphModel>
  </diagram>
</mxfile>
